<svg width="256" height="256" xmlns="http://www.w3.org/2000/svg">

 <g>
  <title>background</title>
  <rect fill="none" id="canvas_background" height="402" width="582" y="-1" x="-1"/>
 </g>
 <g>
  <title>Layer 1</title>
  <path id="svg_2" stroke="#fff" fill="#fff" d="m183.199997,76.156799l-2.099991,-11.588211c-0.600006,-3.284843 -3.5,-5.657234 -7,-6.022217l-4.600006,-16.424232c-0.899994,-3.1936 -4.100006,-5.474743 -7.800003,-5.474743l-67.5,0c-3.699997,0 -6.899994,2.281143 -7.799995,5.565987l-4.400002,16.332989c-3.599998,0.364983 -6.5,2.737373 -7.099998,6.022217l-2.099998,11.588211c-0.400002,2.189896 1.5,4.288544 3.899994,4.288544l3.700005,0l2.5,21.898979l-0.599998,0c-2.400002,0 -4.200005,1.824913 -4,4.014816l7.599998,72.996147c0.199997,1.916168 1.900002,3.284851 4,3.284851l2.299995,0l3.900002,33.21344c0.200005,1.824905 1.900002,3.284851 4,3.284851l56.799995,0c2.100006,0 3.800003,-1.459946 4,-3.284851l3.600006,-33.21344l1.5,0c2.100006,0 3.800003,-1.459946 4,-3.284851l7.600006,-72.996147c0.199997,-2.098656 -1.600006,-4.014816 -4,-4.014816l-0.300003,0l2.399994,-21.898979l3.5,0c2.5,0 4.400009,-2.007401 4,-4.288544zm-8.599991,-3.011108l-2.399994,0l-88.200012,0l-2.599998,0l1.299995,-7.29966l90.400009,0l0,0l1.5,7.29966zm-80.400009,-29.198639l67.5,0l0,0l4.100006,14.599319l-75.600006,0l4,-14.599319zm59.100006,167.891724l-49.600006,0l-3.399994,-29.198639l56.200012,0l-3.200012,29.198639zm9.099991,-36.498291l-68.799995,0l-6.799995,-65.696548l82.399994,0l-6.800003,65.696548zm2.900009,-72.996162l-74.300003,0l-2.5,-21.898979l79.300003,0l-2.5,21.898979z"/>
 </g>
</svg>
